<svg width="33" height="33" viewBox="0 0 33 33" fill="none" xmlns="http://www.w3.org/2000/svg">
<path fill-rule="evenodd" clip-rule="evenodd" d="M16.8382 25.2915C16.5189 25.1397 16.1478 25.1397 15.8284 25.2915L8.96846 28.5511C8.09957 28.9639 7.12884 28.2155 7.31442 27.2758L8.71346 20.1914C8.78751 19.8164 8.6719 19.4292 8.40408 19.1552L3.33275 13.9665C2.65904 13.2772 3.06762 12.1189 4.02668 11.9992L11.1227 11.1135C11.5114 11.065 11.8499 10.8264 12.0248 10.4778L15.2854 3.97868C15.7167 3.11909 16.95 3.11909 17.3813 3.97868L20.6419 10.4778C20.8168 10.8264 21.1553 11.065 21.544 11.1135L28.64 11.9992C29.599 12.1189 30.0076 13.2772 29.3339 13.9665L24.2626 19.1552C23.9948 19.4292 23.8792 19.8164 23.9532 20.1914L25.3523 27.2758C25.5378 28.2155 24.5671 28.9639 23.6982 28.5511L16.8382 25.2915Z" fill="white"/>
</svg>
